<?xml version="1.0" standalone="no"?>
<!DOCTYPE svg PUBLIC "-//W3C//DTD SVG 1.1//EN" "http://www.w3.org/Graphics/SVG/1.1/DTD/svg11.dtd" >
<svg xmlns="http://www.w3.org/2000/svg">
<metadata></metadata>
<defs>
<font id="trendex_light_ssiextra_light" horiz-adv-x="1137" >
<font-face units-per-em="2048" ascent="1638" descent="-410" />
<missing-glyph horiz-adv-x="567" />
<glyph horiz-adv-x="2048" />
<glyph horiz-adv-x="2048" />
<glyph unicode="&#xd;" horiz-adv-x="0" />
<glyph unicode=" "  horiz-adv-x="567" />
<glyph unicode="&#x09;" horiz-adv-x="567" />
<glyph unicode="&#xa0;" horiz-adv-x="567" />
<glyph unicode="!" horiz-adv-x="530" d="M236 0v168h61v-168h-61zM236 344v1186h61v-1186h-61z" />
<glyph unicode="&#x22;" horiz-adv-x="682" d="M193 918v612h61v-612h-61zM428 918v612h61v-612h-61z" />
<glyph unicode="#" d="M37 561l6 47h309l39 283h-309l8 49h309l64 457h49l-63 -457h292l64 457h49l-63 -457h309l-6 -49h-312l-39 -283h312l-6 -47h-310l-69 -498h-49l67 498h-293l-67 -498h-52l70 498h-309zM401 608h293l41 283h-293z" />
<glyph unicode="$" d="M170 469h61q10 -112 63 -186t128.5 -109t157.5 -35q91 0 166 44t118 119t43 165q0 163 -95.5 230.5t-279.5 117.5q-128 37 -215.5 111.5t-87.5 230.5q0 138 88 236t228 116v166h61v-166q161 -19 240 -114.5t90 -218.5h-62q-11 99 -61 161.5t-113.5 89.5t-119.5 27 q-70 0 -137.5 -37t-109.5 -105t-42 -155q0 -98 44 -156.5t110.5 -88t179.5 -60.5q140 -40 242 -118.5t102 -268.5q0 -95 -46.5 -182t-129 -142.5t-187.5 -62.5v-197h-61v197q-103 9 -186 60.5t-133 138.5t-56 192z" />
<glyph unicode="%" horiz-adv-x="1473" d="M45 1221q0 93 43 171.5t120.5 122.5t170.5 44q94 0 170.5 -43.5t120 -122t43.5 -172.5q0 -95 -43.5 -173t-120 -121.5t-170.5 -43.5q-93 0 -170.5 44t-120.5 122t-43 172zM102 1221q0 -83 35.5 -148t98 -101t143.5 -36q122 0 199 80.5t77 204.5q0 82 -35 146.5t-97.5 101 t-143.5 36.5t-143.5 -36t-98 -101t-35.5 -147zM233 0l936 1530h66l-936 -1530h-66zM760 311q0 94 43 171.5t120.5 121t170.5 43.5q94 0 170.5 -43.5t119.5 -121t43 -171.5q0 -93 -43 -171.5t-119.5 -122.5t-170.5 -44q-93 0 -170.5 44t-120.5 122.5t-43 171.5zM817 311 q0 -83 35.5 -148t98 -101.5t143.5 -36.5t143 36.5t97.5 101.5t35.5 148q0 82 -35.5 147t-97.5 101.5t-143 36.5t-143.5 -36.5t-98 -101.5t-35.5 -147z" />
<glyph unicode="&#x26;" horiz-adv-x="1477" d="M113 401q0 178 120.5 295.5t284.5 182.5l-78 86q-70 79 -100 132.5t-33 135.5q0 85 42 161t115.5 120.5t162.5 44.5q68 0 131 -26.5t107.5 -72t71 -107t26.5 -128.5q0 -76 -26.5 -130.5t-73 -94.5t-96.5 -66.5t-151 -73.5l377 -389l256 496h68l-279 -541l394 -408 l-43 -41l-379 392l-49 -99q-50 -94 -93.5 -152t-122 -101.5t-198.5 -43.5q-130 0 -229 61.5t-152 160t-53 206.5zM174 399q2 -98 47.5 -181.5t132 -135t199.5 -51.5q78 0 139.5 24t113.5 82.5t101 159.5l56 117l-404 422q-113 -50 -189.5 -104.5t-118 -108t-58.5 -108 t-19 -116.5zM369 1241q0 -117 104 -225l102 -111q135 62 197.5 99.5t95.5 89t33 133.5q0 109 -77 189t-195 83q-118 -3 -189 -83.5t-71 -174.5z" />
<glyph unicode="'" horiz-adv-x="455" d="M197 918v612h61v-612h-61z" />
<glyph unicode="(" horiz-adv-x="870" d="M211 498q0 215 75 421t209 370.5t310 269.5v-74q-110 -68 -206.5 -171.5t-169 -233t-113 -277t-40.5 -305.5q0 -157 40.5 -305.5t113 -278t167.5 -230.5t208 -173v-78q-93 63 -152.5 110.5t-132.5 128.5q-70 82 -128 179.5t-98 201.5t-61.5 218.5t-21.5 226.5z" />
<glyph unicode=")" horiz-adv-x="870" d="M66 -496q148 94 268 244.5t190 342.5t70 401t-70.5 401.5t-190 343t-267.5 244.5v78q91 -62 154 -113t130 -129q73 -84 130.5 -180t97 -199.5t60.5 -215t21 -230.5q0 -214 -74.5 -420.5t-208.5 -371t-310 -267.5v71z" />
<glyph unicode="*" horiz-adv-x="1174" d="M309 1098l219 129l-219 125l31 53l217 -129v254h59v-254l218 129l28 -51l-215 -127l219 -131l-28 -49l-222 127v-256h-59v258l-217 -129z" />
<glyph unicode="+" horiz-adv-x="1229" d="M102 487v60h484v489h57v-489h483v-60h-483v-487h-57v487h-484z" />
<glyph unicode="," horiz-adv-x="567" d="M125 -150l129 320h65l-129 -320h-65z" />
<glyph unicode="-" horiz-adv-x="545" d="M0 543v59h545v-59h-545z" />
<glyph unicode="." horiz-adv-x="567" d="M254 0v168h61v-168h-61z" />
<glyph unicode="/" horiz-adv-x="1061" d="M137 -207l719 1737h68l-719 -1737h-68z" />
<glyph unicode="0" d="M80 459v594q0 156 55 258t134.5 155t158 73t133.5 20q135 0 247.5 -61t179.5 -172.5t67 -254.5v-612q0 -137 -52.5 -234t-131.5 -151t-159 -77.5t-141 -23.5q-103 0 -216.5 47t-194 157t-80.5 282zM141 459q0 -99 34.5 -180t96 -137t138.5 -84.5t157 -28.5q64 0 136 22 t138.5 72.5t109 134t42.5 201.5v612q0 79 -26 155t-80 139t-135 99.5t-191 36.5q-113 0 -209 -51t-153.5 -150.5t-57.5 -240.5v-600z" />
<glyph unicode="1" d="M227 1475v55h398v-1530h-62v1475h-336z" />
<glyph unicode="2" d="M117 0v55l651 674q102 104 150.5 190t52.5 179q0 118 -50.5 209t-138 142.5t-196.5 51.5q-100 0 -187.5 -49t-140 -147.5t-55.5 -241.5h-62q3 126 43 221.5t106 156.5t145 89.5t159 28.5q123 0 223.5 -60.5t157.5 -170t57 -241.5q-7 -105 -59 -192t-164 -213l-610 -627 h833v-55h-915z" />
<glyph unicode="3" d="M80 444h61q4 -104 41 -183.5t96 -130.5t129.5 -76t139.5 -25q118 0 209.5 54.5t140.5 148.5t49 204q0 93 -46 188.5t-143.5 159.5t-242.5 64h-82v55h80q197 0 265.5 102.5t68.5 198.5q0 86 -36.5 154t-103 105.5t-147.5 37.5q-86 0 -153.5 -39t-105.5 -106.5t-42 -145.5 h-61q7 113 60 191.5t133 118t163 39.5q68 0 132 -23t114 -69t79 -113t29 -152q0 -61 -23 -126t-71 -117.5t-119 -77.5v-4q117 -41 188.5 -117.5t98.5 -158t27 -152.5q0 -141 -59.5 -249t-165.5 -167.5t-242 -59.5q-117 0 -222.5 57t-171.5 164.5t-67 249.5z" />
<glyph unicode="4" d="M35 297v55l770 1178h84v-1176h153v-57h-153v-297h-62v297h-792zM106 354h721v1102h-4z" />
<glyph unicode="5" d="M43 449h61q14 -129 82 -225t165 -145.5t198 -49.5q116 0 218.5 62.5t164 169.5t61.5 231q0 131 -62 239t-164 170t-218 62q-77 0 -167.5 -35t-178.5 -144l-53 15l139 731h680v-55h-631l-111 -578q64 51 139.5 86t186.5 35q110 0 201 -41.5t159.5 -115t105 -167.5 t36.5 -196q0 -147 -70.5 -267t-188 -189t-249.5 -69q-76 0 -157.5 28.5t-157 88.5t-126 152t-63.5 207z" />
<glyph unicode="6" d="M68 473q0 118 35 208t94 175l458 674h70l-406 -594l5 -2q48 33 112.5 55.5t136.5 22.5q132 0 246 -65.5t181 -183t67 -267.5q0 -138 -65 -258.5t-179.5 -192.5t-255.5 -72q-164 0 -277 76.5t-167.5 192t-54.5 231.5zM129 477q0 -119 53 -222t151.5 -164.5t231.5 -61.5 q128 0 228 62.5t156.5 169t56.5 228.5q0 113 -38.5 203t-100.5 147t-138 87t-154 30q-70 0 -147.5 -27t-146 -85.5t-110.5 -151t-42 -215.5z" />
<glyph unicode="7" d="M178 1475v55h805v-55l-676 -1475h-63l674 1475h-740z" />
<glyph unicode="8" d="M106 432q4 153 92.5 272t225.5 162q-99 43 -160 135t-61 197q0 72 28 137t79 116t116.5 79.5t140.5 28.5q98 0 182.5 -48.5t133.5 -131t49 -181.5q0 -70 -28 -136t-78 -116.5t-115 -79.5q91 -29 162 -91.5t112.5 -153.5t42.5 -189q-3 -127 -64.5 -231.5t-166 -166 t-230.5 -61.5t-229.5 61t-166 167t-65.5 231zM168 432q0 -110 53 -203t145.5 -146.5t200.5 -53.5t201 53.5t146 146t53 203.5q0 84 -30.5 157.5t-85 129t-127.5 86.5t-157 31q-108 0 -200.5 -54t-145.5 -147t-53 -203zM264 1196q0 -82 39.5 -152.5t110 -111.5t153.5 -41 t153.5 41t110 111.5t39.5 152.5q0 83 -39.5 153.5t-110 111t-153.5 40.5t-153.5 -40.5t-110 -111t-39.5 -153.5z" />
<glyph unicode="9" d="M70 1034q0 103 36.5 197.5t103.5 168.5t159 116.5t200 42.5q164 0 277.5 -77t168 -192.5t54.5 -232.5q0 -86 -18 -153.5t-43.5 -115.5t-67.5 -114l-459 -674h-69l405 596l-4 2q-46 -31 -106 -53q-72 -25 -144 -25q-131 0 -244.5 65t-181 182.5t-67.5 266.5zM131 1040 q0 -147 64.5 -253t164.5 -159t201 -53q98 0 202 49.5t174.5 158t70.5 270.5q0 119 -53 222t-152 164.5t-232 61.5q-128 0 -228 -62.5t-156 -169t-56 -229.5z" />
<glyph unicode=":" horiz-adv-x="567" d="M254 0v168h61v-168h-61zM254 928v168h61v-168h-61z" />
<glyph unicode=";" horiz-adv-x="567" d="M125 -150l129 320h65l-129 -320h-65zM252 928v168h61v-168h-61z" />
<glyph unicode="&#x3c;" horiz-adv-x="1229" d="M102 485v68l1024 485v-63l-956 -455l956 -457v-63z" />
<glyph unicode="=" horiz-adv-x="1229" d="M102 287v59h1024v-59h-1024zM102 688v60h1024v-60h-1024z" />
<glyph unicode="&#x3e;" horiz-adv-x="1229" d="M102 0v63l957 457l-957 455v63l1024 -485v-68z" />
<glyph unicode="?" horiz-adv-x="1098" d="M82 1122q6 119 50.5 204t111.5 136t139 72.5t139 21.5q115 0 214.5 -55.5t159.5 -156t60 -224.5q0 -76 -33.5 -142.5t-83 -122t-126.5 -130.5q-100 -101 -127 -190t-27 -191h-61q2 80 13 146t50.5 139t122.5 153q39 40 79 80.5t68 79t45.5 84.5t18.5 98q0 99 -48 183 t-134 134t-189 50q-85 0 -171.5 -37.5t-145 -121t-64.5 -210.5h-61zM498 0v168h59v-168h-59z" />
<glyph unicode="@" horiz-adv-x="1630" d="M84 756q0 217 103.5 401.5t284.5 293t398 108.5q128 0 252.5 -42t227 -125t163 -205t60.5 -276q0 -186 -83.5 -317t-198.5 -195.5t-199 -64.5q-54 0 -108 30t-54 123h-4q-38 -59 -101 -102t-159 -43q-77 0 -149.5 60.5t-72.5 207.5q0 106 35 209t97 188.5t140.5 135 t162.5 49.5q105 0 155.5 -54.5t61.5 -117.5h4l47 139h57l-196 -563q-4 -11 -9.5 -26.5t-11.5 -38.5t-6 -42q0 -102 113 -102q82 0 181 62t170 180.5t71 279.5q0 191 -94.5 325.5t-242.5 201.5t-305 67q-145 0 -279.5 -54t-235.5 -153t-159.5 -239t-58.5 -301q0 -160 58 -296 t159.5 -233t230.5 -148.5t265 -51.5q181 0 359 92t268 268h51q-60 -142 -173 -234.5t-245.5 -136t-257.5 -43.5q-213 0 -390.5 104.5t-279.5 284t-102 394.5zM502 610q0 -81 26 -129t63.5 -67t78.5 -19q130 0 200.5 86.5t102.5 188.5l57 151q20 55 26.5 77.5t6.5 57.5 q-3 94 -61 138.5t-119 44.5q-85 0 -174.5 -73t-148 -195t-58.5 -261z" />
<glyph unicode="A" horiz-adv-x="1407" d="M14 0l650 1530h79l650 -1530h-66l-227 535h-793l-227 -535h-66zM334 590h739l-371 883z" />
<glyph unicode="B" horiz-adv-x="1106" d="M158 0v1530h321q94 0 156.5 -14t109.5 -41q96 -51 137.5 -140.5t41.5 -187.5q0 -82 -38 -179t-171 -155v-4q128 -37 194.5 -113.5t87.5 -154.5t21 -133q-3 -272 -240 -373q-99 -35 -241 -35h-379zM219 55h320q124 0 217 33q59 26 103.5 69.5t69.5 105t27 145.5 q0 113 -54 200t-150 129q-56 25 -104.5 31t-153.5 6h-275v-719zM219 829h275q140 0 215 39q88 51 120.5 122t32.5 165q0 98 -45.5 173t-107.5 102q-76 43 -230 45h-260v-646z" />
<glyph unicode="C" horiz-adv-x="1610" d="M84 766q0 224 105 405.5t286 284.5t395 103q113 0 217 -31.5t190 -85.5t151 -119.5t106 -132.5h-72q-41 58 -117.5 128t-198.5 126t-276 57q-149 0 -281 -54.5t-232 -154.5t-156 -234.5t-56 -291.5t56 -292t157 -236t234 -155t278 -54q159 0 284 57t200 127.5t108 120.5 h70q-36 -64 -101.5 -130t-150 -117.5t-191 -82.5t-219.5 -31q-213 0 -394.5 102.5t-286.5 284t-105 406.5z" />
<glyph unicode="D" horiz-adv-x="1436" d="M158 0v1530h428q177 0 320.5 -52t241 -149t150 -240.5t52.5 -322.5t-52 -322t-151 -242t-241.5 -150.5t-319.5 -51.5h-428zM219 55h367q218 0 376.5 84.5t242 244t83.5 378.5q0 222 -83 382.5t-241 245.5t-378 85h-367v-1420z" />
<glyph unicode="E" horiz-adv-x="1120" d="M158 0v1530h831v-55h-770v-676h770v-56h-770v-688h770v-55h-831z" />
<glyph unicode="F" horiz-adv-x="977" d="M158 0v1530h743v-55h-682v-676h682v-56h-682v-743h-61z" />
<glyph unicode="G" horiz-adv-x="1747" d="M84 766q0 224 105 405.5t286 284.5t395 103q141 0 273.5 -45t239.5 -127t176 -195h-74q-113 151 -270.5 230t-344.5 79q-149 0 -281 -54.5t-232 -154.5t-156 -234.5t-56 -291.5t56 -292t157 -236t234 -155t278 -54q187 0 344 79t259 208.5t131 275.5h-904v55h977 q-15 -134 -84 -259t-176.5 -217t-249 -145t-297.5 -53q-213 0 -394.5 102.5t-286.5 284t-105 406.5z" />
<glyph unicode="H" horiz-adv-x="1286" d="M158 0v1530h61v-731h848v731h61v-1530h-61v743h-848v-743h-61z" />
<glyph unicode="I" horiz-adv-x="379" d="M158 0v1530h61v-1530h-61z" />
<glyph unicode="J" horiz-adv-x="928" d="M12 291h68q36 -152 132 -207t181 -55q111 3 185.5 56t99.5 124q33 82 33 229v1092h61v-1092q0 -161 -37 -252q-40 -86 -104 -135q-105 -78 -242 -78q-85 0 -165.5 36.5t-137.5 108t-74 173.5z" />
<glyph unicode="K" horiz-adv-x="1098" d="M186 0v1530h62v-1034h4l772 1034h74l-566 -754l566 -776h-74l-530 727l-246 -328v-399h-62z" />
<glyph unicode="L" horiz-adv-x="866" d="M158 0v1530h61v-1475h641v-55h-702z" />
<glyph unicode="M" horiz-adv-x="1911" d="M158 0v1530h98l700 -1432l699 1432h96v-1530h-61v1468h-2h2h-4l-713 -1468h-35l-715 1468h-4v-1468h-61z" />
<glyph unicode="N" horiz-adv-x="1511" d="M158 0v1530h92l1038 -1448h4v1448h62v-1530h-78l-1053 1468h-4v-1468h-61z" />
<glyph unicode="O" horiz-adv-x="1743" d="M84 766q0 224 105 405.5t286 284.5t395 103q161 0 305.5 -58.5t253 -166.5t168.5 -253.5t60 -314.5q0 -225 -105 -406.5t-286.5 -284t-395.5 -102.5q-213 0 -394.5 102.5t-286.5 284t-105 406.5zM145 766q0 -157 56 -292t157 -236t234 -155t278 -54q146 0 279.5 54.5 t234 155t156 235.5t55.5 292t-55 291.5t-155 234t-232.5 154.5t-282.5 55q-149 0 -281 -54.5t-232 -154.5t-156 -234.5t-56 -291.5z" />
<glyph unicode="P" horiz-adv-x="1047" d="M137 0v1530h352q143 0 225 -18.5t154 -71.5q69 -51 111.5 -146t42.5 -198q0 -102 -42.5 -196.5t-111.5 -145.5q-50 -38 -103 -57.5t-119 -27t-157 -7.5h-290v-662h-62zM199 717h293q125 0 203 19.5t141 66.5q55 40 90 122.5t35 168.5q0 89 -34.5 172t-90.5 125 q-64 48 -138.5 66t-205.5 18h-293v-758z" />
<glyph unicode="Q" horiz-adv-x="1806" d="M115 766q0 224 105 405.5t286 284.5t395 103q213 0 395 -103t287 -284.5t105 -405.5q0 -217 -78.5 -356.5t-184.5 -243.5q64 -39 117 -62t116.5 -39t153.5 -28v-64q-117 15 -188 35t-115 42.5t-135 76.5q-82 -60 -200.5 -107t-266.5 -47q-177 0 -323 62.5t-252 174.5 t-161.5 254.5t-55.5 301.5zM176 766q0 -88 11.5 -144t31.5 -114q178 63 352 63q248 0 451 -112q46 -24 104 -66t250 -190q125 110 187.5 253.5t62.5 309.5q0 157 -55 291.5t-155 234t-232.5 154.5t-282.5 55q-149 0 -281 -54.5t-232 -154.5t-156 -234.5t-56 -291.5zM244 449 q83 -173 205.5 -266t241 -123.5t218.5 -30.5q129 0 238.5 41.5t179.5 95.5q-13 9 -53 39t-117 89t-80 62q-239 158 -514 158q-95 0 -164 -16.5t-155 -48.5z" />
<glyph unicode="R" horiz-adv-x="1135" d="M137 0v1530h346q173 0 259.5 -14.5t144.5 -49.5q92 -44 155.5 -159.5t63.5 -247.5q0 -81 -26 -164.5t-79.5 -154.5t-140 -115t-201.5 -45l-59 -2l408 -578h-78l-445 633h95q118 0 192 19.5t143 78.5q129 133 129 326q0 102 -47.5 201t-132.5 155q-42 27 -95 41t-114 17.5 t-172 3.5h-284v-1475h-62z" />
<glyph unicode="S" horiz-adv-x="1061" d="M92 387h62q17 -136 81 -216.5t143 -111t150 -30.5q96 0 184 46t142.5 129.5t54.5 188.5q0 99 -38 168t-95.5 109t-119 62t-134.5 40q-107 27 -187 61t-145 113t-65 211q0 95 33.5 170t91.5 126t132.5 77t154.5 26q90 0 175 -38t142.5 -118.5t73.5 -199.5h-62 q-22 122 -96.5 210.5t-237.5 88.5q-97 0 -176 -42t-124.5 -117t-45.5 -173q0 -86 33 -147t88 -98.5t115 -59t172 -51.5q66 -17 114.5 -33.5t111.5 -59.5t107 -121.5t44 -195.5q0 -92 -36.5 -170.5t-99 -137t-141.5 -89.5t-164 -31q-96 0 -194 45t-166 139t-78 230z" />
<glyph unicode="T" horiz-adv-x="907" d="M10 1475v55h885v-55h-412v-1475h-61v1475h-412z" />
<glyph unicode="U" horiz-adv-x="1239" d="M156 539v991h61v-991q0 -94 4 -146.5t24.5 -108t65.5 -114.5q35 -46 85 -77t108.5 -47.5t118.5 -16.5q56 0 113.5 16.5t107 47.5t84.5 77q45 59 65.5 114.5t24.5 108t4 146.5v991h61v-991q0 -152 -32 -270t-150 -203q-59 -44 -132.5 -68.5t-150.5 -24.5q-155 0 -280 93 q-82 58 -122 139t-50 157.5t-10 176.5z" />
<glyph unicode="V" horiz-adv-x="1364" d="M14 1530h70l598 -1426l600 1426h68l-648 -1530h-43z" />
<glyph unicode="W" horiz-adv-x="1819" d="M25 1530h65l406 -1446h4l387 1446h43l391 -1446h4l406 1446h63l-434 -1530h-80l-371 1368h-4l-366 -1368h-82z" />
<glyph unicode="X" d="M16 0l516 778l-497 752h74l456 -694l461 694h72l-498 -752l520 -778h-71l-484 725l-481 -725h-68z" />
<glyph unicode="Y" horiz-adv-x="1135" d="M31 1530h67l469 -932l467 932h70l-506 -1002v-528h-61v528z" />
<glyph unicode="Z" horiz-adv-x="1022" d="M12 1475v55h955l-826 -1475h869v-55h-969l825 1475h-854z" />
<glyph unicode="[" horiz-adv-x="870" d="M365 -31v1055q0 85 17.5 171t94 189t228.5 175v-76q-97 -49 -158 -117.5t-89 -153t-28 -188.5v-1055q0 -79 17 -155.5t78 -159t180 -141.5v-76q-119 58 -194 136t-110.5 176t-35.5 220z" />
<glyph unicode="\" horiz-adv-x="1061" d="M137 1530h68l719 -1737h-68z" />
<glyph unicode="]" horiz-adv-x="870" d="M166 -487q97 49 158 117t88.5 152.5t27.5 186.5v1055q0 324 -274 459v76q120 -60 194.5 -137.5t110 -176t35.5 -221.5v-1055q0 -85 -17.5 -170t-93.5 -187t-229 -175v76z" />
<glyph unicode="^" horiz-adv-x="1229" d="M229 776l353 754h65l352 -754h-65l-320 686l-319 -686h-66z" />
<glyph unicode="_" horiz-adv-x="1024" d="M0 -156h1024v-102h-1024v102z" />
<glyph unicode="`" d="M295 1536l29 49l485 -287l-27 -47z" />
<glyph unicode="a" horiz-adv-x="1380" d="M84 549q0 112 39.5 216t116.5 185.5t182.5 126.5t232.5 45q185 0 323 -93.5t181 -211.5h4v279h58v-1096h-58v272h-4q-45 -90 -120 -158.5t-172 -104.5t-212 -36q-126 0 -233.5 46.5t-183.5 129t-115 187t-39 213.5zM141 549q2 -130 60.5 -250.5t176.5 -196t284 -75.5 q146 0 262 70.5t180.5 190t64.5 261.5q0 110 -39 206t-109 166.5t-164 109t-202 38.5q-106 0 -199.5 -38.5t-164 -107t-110.5 -165.5t-40 -209z" />
<glyph unicode="b" horiz-adv-x="1380" d="M160 0v1530h57v-713h4q62 130 190.5 216t313.5 89q127 0 234 -45.5t182 -125.5t115 -185t40 -217q0 -113 -39 -215.5t-115 -185.5t-183 -129t-234 -46q-171 0 -302 79t-202 220h-4v-272h-57zM211 549q0 -142 65 -262t181 -190t262 -70q165 0 283 75.5t176.5 196.5 t60.5 250q0 115 -40.5 211.5t-109.5 164t-163 106t-201 38.5q-106 0 -201 -38.5t-165.5 -109.5t-109 -166t-38.5 -206z" />
<glyph unicode="c" horiz-adv-x="1268" d="M84 547q0 158 73.5 290.5t205 208.5t292.5 76q113 0 222 -42.5t193 -128.5t126 -210h-63q-40 115 -119 188.5t-172.5 106.5t-184.5 33q-115 -2 -198 -36t-168 -111q-66 -60 -108 -163t-42 -210q0 -150 69.5 -270t188 -186t256.5 -66q90 1 168 26.5t140 71t105 103 t62 118.5h64q-58 -169 -203 -269.5t-336 -103.5q-115 0 -220 41.5t-184.5 119.5t-123 183.5t-43.5 231.5v-2z" />
<glyph unicode="d" horiz-adv-x="1386" d="M84 549q0 112 39.5 216t116.5 185.5t182.5 126.5t232.5 45q185 0 323 -93.5t181 -211.5h4v713h58v-1530h-58v272h-4q-45 -90 -120 -158.5t-172 -104.5t-212 -36q-126 0 -233.5 46.5t-183.5 129t-115 187t-39 213.5zM141 549q2 -130 60.5 -250.5t176.5 -196t284 -75.5 q146 0 262 70.5t180.5 190t64.5 261.5q0 110 -39 206t-109 166.5t-164 109t-202 38.5q-106 0 -199.5 -38.5t-164 -107t-110.5 -165.5t-40 -209z" />
<glyph unicode="e" horiz-adv-x="1268" d="M63 547q0 120 43.5 225.5t122.5 184.5t183 122t225 43q147 0 275 -67.5t207.5 -193.5t86.5 -288l-2 -30h-1081q1 -167 81 -284t198 -174.5t235 -57.5q153 0 276.5 76.5t186.5 213.5h63q-48 -114 -130.5 -191.5t-184 -115t-213.5 -37.5q-163 0 -293.5 75t-204.5 206.5 t-74 294.5v-2zM125 596h1022q-4 93 -47 181t-113 152.5t-160.5 102t-189.5 37.5q-133 0 -247.5 -61t-186 -169t-78.5 -243z" />
<glyph unicode="f" horiz-adv-x="539" d="M14 1042v54h179v108q0 71 17.5 143t93 138t228.5 74v-58q-69 -6 -125.5 -23t-106.5 -81t-50 -187v-114h282v-54h-282v-1042h-57v1042h-179z" />
<glyph unicode="g" horiz-adv-x="1382" d="M82 549q0 153 71 284t202.5 210t303.5 79q185 0 323 -93.5t181 -211.5h4v279h58v-973q-1 -213 -96.5 -345t-223 -188.5t-231.5 -56.5q-169 0 -318 90t-217 246h66q36 -59 62.5 -93.5t78.5 -74.5q140 -115 320 -115q96 0 185.5 37.5t161 106.5t113 166.5t41.5 216.5v159 h-6q-46 -91 -119.5 -159t-170.5 -104t-212 -36q-129 0 -236.5 46t-185 130t-116.5 187.5t-39 212.5zM139 549q2 -130 61 -250.5t179 -196t287 -75.5q146 0 262 70t181 190t65 262q0 110 -39 206t-108.5 166.5t-164.5 109t-203 38.5q-107 0 -202.5 -38t-166.5 -107t-111 -166 t-40 -209z" />
<glyph unicode="h" horiz-adv-x="1311" d="M160 0v1530h57v-645h4q34 78 103 130.5t157.5 79.5t175.5 27q209 0 340 -108q80 -68 119 -177t39 -257v-580h-57v580q0 137 -34.5 232.5t-98.5 154.5q-114 102 -308 102q-134 -1 -234 -54t-153 -152t-53 -232v-631h-57z" />
<glyph unicode="i" horiz-adv-x="377" d="M160 0v1096h57v-1096h-57zM160 1341v189h57v-189h-57z" />
<glyph unicode="j" horiz-adv-x="449" d="M-29 -379q96 14 144.5 64t64 129t15.5 198v1084h57v-1084q0 -123 -14 -209.5t-75 -157t-192 -85.5v61zM195 1339v191h57v-191h-57z" />
<glyph unicode="k" horiz-adv-x="956" d="M160 0v1530h57v-1231h4l592 797h76l-402 -535l437 -561h-76l-397 514l-234 -313v-201h-57z" />
<glyph unicode="l" horiz-adv-x="375" d="M160 0v1530h57v-1530h-57z" />
<glyph unicode="m" horiz-adv-x="1944" d="M160 0v1096h57v-195h4q66 131 169 176t192 45q101 0 182.5 -34t136.5 -99q48 -51 72 -129h4q23 71 76 129q56 62 139 97.5t176 35.5q187 0 297 -108q65 -65 95 -166.5t30 -233.5v-614h-57v614q0 79 -11 145t-35 121t-65 97q-89 92 -254 92q-80 0 -156.5 -31.5 t-124.5 -93.5q-51 -69 -67 -134.5t-16 -195.5v-614h-58v614q0 130 -17 198t-61 128q-94 123 -286 129q-80 0 -152 -33t-113 -86q-100 -117 -100 -325v-625h-57z" />
<glyph unicode="n" horiz-adv-x="1313" d="M160 0v1096h57v-211h4q34 78 103 130.5t157.5 79.5t175.5 27q209 0 340 -108q80 -68 119 -177t39 -257v-580h-57v580q0 137 -34.5 232.5t-98.5 154.5q-114 102 -308 102q-134 -1 -234 -54t-153 -152t-53 -232v-631h-57z" />
<glyph unicode="o" horiz-adv-x="1313" d="M84 549q0 119 43 224.5t120.5 184t182 121.5t225.5 43q122 0 226.5 -43t182.5 -121t120.5 -183t42.5 -226q0 -162 -74.5 -293.5t-205.5 -207t-292 -75.5q-160 0 -291 75.5t-205.5 207t-74.5 293.5zM141 549q0 -148 67.5 -267.5t185.5 -187t261 -67.5t261 67.5t185.5 187 t67.5 267.5q0 147 -67.5 266t-185.5 186.5t-261 67.5t-261 -67.5t-185.5 -186.5t-67.5 -266z" />
<glyph unicode="p" horiz-adv-x="1386" d="M160 -440v1536h57v-273h4q47 93 121 160t171 103t212 36q131 0 237 -46t180.5 -127.5t114 -183.5t39.5 -216q0 -112 -40 -217t-114 -185t-182 -127t-235 -47q-184 0 -321.5 93.5t-182.5 212.5h-4v-719h-57zM211 549q0 -111 38.5 -206.5t109 -166.5t165.5 -110t201 -39 q107 0 201 38.5t163 107t109.5 165t40.5 211.5q-2 129 -60.5 249t-176.5 195.5t-283 75.5q-147 0 -262.5 -70.5t-180.5 -190t-65 -259.5z" />
<glyph unicode="q" horiz-adv-x="1380" d="M84 549q0 109 39.5 213.5t114 186t181 127.5t236.5 46q171 0 302 -79t202 -220h4v273h58v-1536h-58v719h-4q-43 -117 -181.5 -211.5t-322.5 -94.5q-127 0 -233.5 46.5t-182.5 128.5t-115.5 185.5t-39.5 215.5zM141 549q0 -111 40 -208.5t110.5 -167t164 -108t199.5 -38.5 q108 0 202 39t164 110t109 167t39 206q0 140 -64.5 259.5t-180 190t-262.5 70.5q-166 0 -284 -75.5t-176.5 -195t-60.5 -249.5z" />
<glyph unicode="r" horiz-adv-x="618" d="M160 0v1096h57v-199h4q45 94 113 143t131.5 63t134.5 19v-55q-67 -2 -118.5 -15t-119.5 -61q-89 -82 -117 -173.5t-28 -223.5v-594h-57z" />
<glyph unicode="s" horiz-adv-x="872" d="M98 303h58q0 -61 20.5 -113t59.5 -89.5t89.5 -55.5t106.5 -18q78 0 137.5 36.5t91 97.5t31.5 132q-3 112 -66 173.5t-196 90.5q-103 31 -160 58.5t-93.5 81t-39.5 143.5q0 87 39.5 152t107 97.5t148.5 32.5q125 -2 206 -75t81 -209h-57q0 117 -66.5 174t-163.5 57 q-106 0 -171.5 -63t-65.5 -166q4 -94 59 -142t178 -84q102 -28 161.5 -54t105 -88t51.5 -171q0 -141 -91 -234.5t-227 -93.5q-137 0 -235.5 89.5t-98.5 240.5z" />
<glyph unicode="t" horiz-adv-x="606" d="M14 1042v54h240v434h57v-434h279v-54h-279v-1042h-57v1042h-240z" />
<glyph unicode="u" horiz-adv-x="1313" d="M160 518v578h57v-578q0 -137 34.5 -233t98.5 -154q112 -104 307 -104q137 2 236 54t152 153.5t53 238.5v623h57v-1096h-57v221h-4q-35 -84 -102 -139t-155.5 -82t-179.5 -27q-210 0 -340 109q-79 68 -118 178t-39 258z" />
<glyph unicode="v" horiz-adv-x="985" d="M8 1096h60l424 -1028l417 1028h66l-447 -1096h-73z" />
<glyph unicode="w" horiz-adv-x="1552" d="M20 1096h64l367 -1010h4l301 862h43l301 -862h4l364 1010h66l-401 -1096h-66l-291 831h-4l-287 -831h-65z" />
<glyph unicode="x" horiz-adv-x="834" d="M20 0l363 551l-363 545h74l324 -490l325 490h70l-360 -545l360 -551h-70l-325 494l-324 -494h-74z" />
<glyph unicode="y" horiz-adv-x="985" d="M23 1096h63l401 -1016l428 1016h68l-657 -1536h-66l193 442z" />
<glyph unicode="z" horiz-adv-x="834" d="M25 0v49l673 993h-637v54h711v-56l-674 -987h709v-53h-782z" />
<glyph unicode="{" horiz-adv-x="870" d="M236 461v59q74 20 119.5 127.5t45.5 267.5v388q0 136 37 196t131 60h136v-56h-111q-55 0 -81.5 -19t-36 -68t-9.5 -150v-383q0 -73 -17.5 -151.5t-55.5 -144.5t-93 -98q51 -22 88 -77.5t57.5 -133.5t20.5 -165v-379q0 -71 5.5 -123t19.5 -76.5t37.5 -33.5t64.5 -9h111 v-55h-136q-64 0 -100.5 27.5t-52 84t-15.5 150.5v377q0 156 -34.5 246.5t-130.5 138.5z" />
<glyph unicode="|" d="M539 -207v1737h61v-1737h-61z" />
<glyph unicode="}" horiz-adv-x="870" d="M166 -508h110q55 0 81 17t36 66t10 159v379q0 134 46 239t120 137q-81 46 -123.5 161.5t-42.5 232.5v383q0 101 -9.5 150t-36 68t-81.5 19h-110v56h135q95 0 131.5 -60t36.5 -196v-388q0 -160 46.5 -268t119.5 -127v-59q-96 -48 -131 -140t-35 -245v-377 q0 -137 -36.5 -199.5t-131.5 -62.5h-135v55z" />
<glyph unicode="~" horiz-adv-x="1229" d="M156 473q38 74 101 112t149 38q54 0 105.5 -18.5t135.5 -57.5q87 -41 130.5 -58.5t86.5 -17.5q52 0 90 34t78 95l39 -39q-36 -69 -91 -108t-112 -39q-53 0 -101 17.5t-132 55.5q-160 78 -229 78q-64 0 -115 -25.5t-96 -103.5z" />
<glyph horiz-adv-x="1802" d="M0 264q2 89 61 156t152 67q23 0 36 -13t13 -36q0 -28 -48 -49.5t-71.5 -41.5t-23.5 -81q0 -65 49 -100t123 -35q2 1 4 1.5t4 0.5q70 0 138.5 26t113.5 75t45 114q0 50 -30 107t-88 143.5t-88 150.5t-30 130q0 201 197 376q89 81 204 138t218 57q70 0 117 -37t47 -106 q0 -22 -6 -43q88 80 202.5 136t219.5 56q70 0 116.5 -37t46.5 -106q0 -84 -59.5 -164t-146.5 -150q-72 -54 -145.5 -97.5t-123.5 -43.5q-19 0 -38 14t-19 33l2 4q0 40 70 66q110 36 206 110q73 59 109.5 113t36.5 92q0 31 -19 48.5t-53 17.5q-65 0 -150 -40t-147 -89 q-76 -58 -134 -146.5t-58 -173.5q0 -70 30.5 -134t90.5 -155.5t91 -151t31 -116.5q0 -92 -64 -164.5t-162 -111.5t-187 -39q-191 0 -262 110q-61 -54 -149 -85t-169 -31q-102 0 -170.5 33t-100.5 87t-32 115zM473 901q0 -55 20.5 -108t45 -94t76.5 -123t69 -119 q61 37 109 37q21 0 35 -14t14 -36q0 -19 -12.5 -29.5t-40 -21t-46.5 -22t-32 -36t-13 -77.5q6 -57 54 -89t118 -32q2 1 4 1.5t5 0.5q70 0 138.5 26t113.5 75t45 114q0 50 -30 107t-88 143.5t-88 150.5t-30 130q0 69 23 135q-5 -4 -14 -14t-13 -13q-65 -51 -142.5 -96 t-125.5 -45q-20 0 -39 14t-19 33l2 4q0 40 70 66q108 35 207 110q72 60 108.5 113.5t36.5 91.5q0 31 -19 48.5t-52 17.5q-64 0 -148.5 -39.5t-148.5 -89.5q-78 -59 -135.5 -147t-57.5 -173zM1300 86q0 60 68 212t151 281.5t115 129.5q16 0 27.5 -10.5t11.5 -28.5 q0 -15 -55.5 -101t-110.5 -193t-98 -251q-14 -50 -24 -69t-39 -19q-20 0 -33 15t-13 34zM1706 954q0 26 21 62t50.5 62t55.5 26q24 0 36.5 -13.5t12.5 -35.5q0 -27 -21.5 -63.5t-51.5 -62.5t-56 -26q-47 0 -47 51z" />
<glyph unicode="&#xa1;" horiz-adv-x="530" d="M236 -432v1188h61v-1188h-61zM236 932v166h61v-166h-61z" />
<glyph unicode="&#xa2;" d="M139 764q0 102 45.5 203.5t142.5 173t240 84.5v196h62v-198q112 -14 208.5 -67.5t159.5 -184.5h-67q-61 115 -150.5 154.5t-183.5 39.5q-91 0 -165.5 -32t-124.5 -86t-77.5 -125.5t-27.5 -151.5q0 -104 45 -197.5t134 -150.5t214 -57q131 0 217 58t119 126h69 q-69 -136 -175 -188.5t-195 -57.5v-223h-62v223q-106 9 -186.5 52t-135 111.5t-80.5 146.5t-26 151z" />
<glyph unicode="&#xa3;" d="M12 758v55h176q-81 105 -84 252q0 137 63 249t174.5 177t250.5 65q164 0 298 -101t177 -277h-63q-19 69 -58.5 128.5t-92.5 102t-120 66.5t-141 24q-122 -1 -218.5 -56.5t-150 -152.5t-57.5 -225q4 -145 102 -252h559v-55h-499v-4q46 -34 95 -89.5t83.5 -135.5t34.5 -173 q0 -157 -92 -301h188q131 0 194.5 22t114.5 73q109 117 109 262q0 48 -15 102h64q12 -58 12 -100q0 -102 -38.5 -179.5t-84.5 -123.5q-51 -45 -96 -69t-108.5 -33t-161.5 -9h-553v55h303q9 14 36.5 57.5t46.5 103t19 138.5q0 120 -58 214t-179 190h-230z" />
<glyph unicode="&#xa4;" d="M80 1155l43 43l158 -160q62 55 134.5 84t151.5 29q160 0 287 -111l156 158l45 -43l-156 -160q109 -123 109 -286q0 -165 -115 -289l158 -160l-43 -43l-156 158q-129 -107 -285 -107q-155 0 -284 107l-158 -158l-41 43l158 160q-115 127 -115 289q0 164 111 286zM188 709 q0 -101 53 -188t141 -138t185 -51q99 0 187 50.5t140 137t52 189.5q0 79 -29.5 147.5t-83 120.5t-122 81t-144.5 29q-74 0 -142 -28t-122.5 -81t-84.5 -121t-30 -148z" />
<glyph unicode="&#xa5;" d="M66 1530h65l434 -723l443 723h65l-418 -684h387v-53h-419l-27 -54v-170h446v-55h-446v-514h-61v514h-439v55h439v170l-29 54h-410v53h379z" />
<glyph unicode="&#xa6;" d="M539 -207v694h61v-694h-61zM539 836v694h61v-694h-61z" />
<glyph unicode="&#xa7;" horiz-adv-x="1174" d="M123 670q0 91 51 177t156 140q-94 89 -94 221q0 80 28 146.5t77 111t116.5 69t144.5 24.5q170 0 271.5 -91.5t101.5 -255.5h-57q-14 162 -96.5 222.5t-219.5 60.5q-91 0 -161 -35t-108.5 -99.5t-39.5 -146.5q1 -76 32 -126.5t71 -77.5t104 -58l307 -147 q244 -115 244 -320q0 -62 -24 -124t-68.5 -112t-102.5 -83q143 -103 143 -262q0 -102 -52 -186.5t-144.5 -131.5t-210.5 -47q-126 0 -280 74t-154 324v65h57v-63q1 -87 32.5 -152.5t82.5 -105.5t118.5 -60t141.5 -20q79 0 143 21t109.5 60t72 96.5t27.5 125.5 q-5 87 -50.5 147t-162.5 115l-399 186q-14 8 -53 31t-74 60t-57.5 92.5t-22.5 134.5zM180 664q1 -83 42.5 -147t115.5 -101l461 -215q39 16 85 58t77 100t32 122q-1 77 -33.5 129t-73 79.5t-108.5 62.5l-405 196q-54 -26 -98 -67.5t-69 -96t-26 -120.5z" />
<glyph unicode="&#xa8;" d="M416 1278v240h59v-240h-59zM662 1278v240h59v-240h-59z" />
<glyph unicode="&#xa9;" horiz-adv-x="1638" d="M37 766q0 214 102 395.5t280.5 287t399.5 105.5q217 0 396.5 -105.5t281.5 -287.5t102 -395q0 -163 -59.5 -308.5t-168 -254t-250 -167.5t-302.5 -59q-215 0 -394.5 102.5t-283.5 283.5t-104 403zM94 766q0 -202 95.5 -371t263 -266.5t366.5 -97.5q149 0 281 55.5 t232.5 156.5t155 235.5t54.5 287.5q0 150 -53.5 283.5t-151.5 235t-231 158t-287 56.5q-153 0 -287 -57t-232.5 -158.5t-152 -235t-53.5 -282.5zM389 764q0 139 55.5 248.5t157.5 170t232 60.5q101 0 186.5 -39t141 -109.5t67.5 -160.5h-58q-25 129 -122.5 192.5 t-217.5 63.5q-108 0 -195.5 -50.5t-138.5 -147t-51 -226.5q0 -213 116 -317.5t267 -104.5q104 0 221.5 67.5t139.5 266.5h57q-9 -121 -69 -209t-153.5 -134t-197.5 -46q-110 0 -211 52t-164 159.5t-63 263.5z" />
<glyph unicode="&#xaa;" horiz-adv-x="899" d="M53 1198q0 97 49 180.5t134 132t188 48.5q67 0 128.5 -24t104.5 -65q53 -48 76 -104h4v174h58v-688h-58v172h-4q-29 -77 -121 -139q-78 -49 -188 -49q-108 0 -192.5 50t-131.5 134t-47 178zM111 1190q0 -70 37 -139.5t109 -115.5t169 -46q90 0 161 42t110.5 113t39.5 152 q0 84 -42.5 154.5t-115.5 111.5t-155 41q-125 0 -219 -84.5t-94 -228.5z" />
<glyph unicode="&#xab;" horiz-adv-x="719" d="M100 571l228 400l41 -56l-197 -344l197 -344l-41 -53zM328 571l229 400l39 -56l-197 -344l197 -344l-39 -53z" />
<glyph unicode="&#xac;" horiz-adv-x="1229" d="M102 688v60h1024v-461h-57v401h-967z" />
<glyph unicode="&#xad;" horiz-adv-x="545" d="M0 543v59h545v-59h-545z" />
<glyph unicode="&#xae;" horiz-adv-x="1638" d="M37 766q0 214 102 395.5t280.5 287t399.5 105.5q217 0 396.5 -105.5t281.5 -287.5t102 -395q0 -163 -59.5 -308.5t-168 -254t-250 -167.5t-302.5 -59q-215 0 -394.5 102.5t-283.5 283.5t-104 403zM94 766q0 -202 95.5 -371t263 -266.5t366.5 -97.5q149 0 281 55.5 t232.5 156.5t155 235.5t54.5 287.5q0 150 -53.5 283.5t-151.5 235t-231 158t-287 56.5q-153 0 -287 -57t-232.5 -158.5t-152 -235t-53.5 -282.5zM481 301v918h379q58 0 125.5 -13t128 -68.5t60.5 -164.5q0 -88 -49.5 -145t-127.5 -78v-5q62 -16 95.5 -45t46.5 -68t16 -93 q10 -148 13.5 -179.5t17.5 -58.5h-60q-7 12 -10 26.5t-7 72t-7 108.5q-5 79 -21.5 120t-74.5 65t-177 24h-290v-416h-58zM539 772h286q23 2 75 8t101 24t82 59t33 110q0 192 -266 192h-311v-393z" />
<glyph unicode="&#xaf;" d="M203 1366v61h729v-61h-729z" />
<glyph unicode="&#xb0;" horiz-adv-x="819" d="M117 1171q0 80 38.5 147.5t105.5 107.5t149 40q80 0 148 -40t106 -107.5t38 -147.5q0 -81 -38.5 -149t-107 -108t-146.5 -40q-79 0 -147 39.5t-107 108t-39 149.5zM174 1171q0 -66 30.5 -120t84.5 -85.5t121 -31.5t120.5 31.5t84 85.5t30.5 120t-31 120t-85.5 86 t-118.5 32t-119.5 -32t-86 -86t-30.5 -120z" />
<glyph unicode="&#xb1;" horiz-adv-x="1229" d="M98 0v57h1032v-57h-1032zM98 582v57h488v408h57v-408h487v-57h-487v-408h-57v408h-488z" />
<glyph unicode="&#xb2;" horiz-adv-x="719" d="M74 612v47l379 400q60 68 86 117t26 98q0 92 -49.5 156.5t-159.5 64.5q-97 0 -154 -67t-57 -187h-57q0 154 82 229.5t190 75.5q78 0 137.5 -32.5t92.5 -95t33 -144.5q0 -63 -34 -124t-97 -128l-338 -358h475v-52h-555z" />
<glyph unicode="&#xb3;" horiz-adv-x="719" d="M68 889h57q1 -83 37.5 -138.5t88 -79.5t101.5 -24q106 0 167 66t61 166q0 54 -26 107t-81 88.5t-137 35.5h-55v53h55q112 0 149 57t37 107q0 43 -19.5 82.5t-55 62t-85.5 23.5q-48 0 -85.5 -21.5t-58.5 -59t-23 -87.5h-58q4 75 38.5 124.5t85.5 72t101 22.5 q87 0 152.5 -61.5t65.5 -155.5q0 -78 -37 -122t-80 -66q77 -32 125.5 -102t48.5 -156q0 -83 -36.5 -148.5t-101.5 -102t-147 -36.5q-70 0 -135.5 33t-106.5 99t-42 161z" />
<glyph unicode="&#xb4;" d="M328 1298l485 287l29 -49l-488 -285z" />
<glyph unicode="&#xb5;" horiz-adv-x="1149" d="M150 -375v1471h57v-621q0 -109 14 -190.5t66 -141.5q96 -116 272 -116q113 0 197.5 60t131 184t46.5 304v521h57v-1096h-57v246h-4q-22 -65 -60 -123.5t-115 -104t-196 -45.5q-246 0 -348 187h-4v-535h-57z" />
<glyph unicode="&#xb6;" horiz-adv-x="1149" d="M25 1116q0 114 53 207t131 141q42 27 120.5 46.5t174.5 19.5h504v-57h-131v-1733h-62v1728h-264v-1728h-62v969h-40q-194 0 -309 119t-115 288z" />
<glyph unicode="&#xb8;" d="M418 -287h55q19 -73 96 -73q22 0 44 11t35.5 33.5t15.5 57.5q-1 42 -29 67t-66 25q-53 0 -84 -51l-45 10l95 207h59l-53 -117l4 -2q12 6 26 6q46 0 79.5 -21t51 -54.5t17.5 -69.5q0 -63 -39.5 -110.5t-110.5 -47.5q-42 0 -90 25t-61 104z" />
<glyph unicode="&#xb9;" horiz-adv-x="719" d="M152 1479v51h251v-918h-57v867h-194z" />
<glyph unicode="&#xba;" horiz-adv-x="899" d="M90 1190q0 102 47 186.5t128 133t181 49.5q81 0 148 -29t114.5 -79t74 -114.5t26.5 -138.5q0 -104 -51.5 -188t-136 -129t-175.5 -45q-69 0 -134 27t-116 77t-78.5 113t-27.5 137zM147 1192q0 -79 40 -149t110 -112t149 -42q60 0 114.5 22.5t98 64.5t68.5 100t25 122 q-2 83 -40.5 152.5t-106.5 111t-154 41.5q-62 0 -116 -21.5t-96.5 -63t-67 -99t-24.5 -127.5z" />
<glyph unicode="&#xbb;" horiz-adv-x="719" d="M123 227l196 344l-196 344l39 56l229 -400l-229 -397zM350 227l197 344l-197 344l41 56l227 -400l-227 -397z" />
<glyph unicode="&#xbc;" horiz-adv-x="1434" d="M90 1479v51h252v-918h-57v867h-195zM293 0l674 1530h61l-676 -1530h-59zM735 176v43l457 699h68v-691h86v-51h-86v-176h-58v176h-467zM805 227h397v615l2 -4l-4 4z" />
<glyph unicode="&#xbd;" horiz-adv-x="1536" d="M90 1479v51h252v-918h-57v867h-195zM293 0l674 1530h61l-676 -1530h-59zM893 0v47l379 399q61 70 86.5 117t25.5 99q0 91 -49 156t-159 65q-95 0 -153 -68t-58 -186h-58q0 152 81.5 229.5t191.5 77.5q76 0 136.5 -33.5t93 -96t32.5 -144.5q0 -64 -32 -122t-99 -130 l-338 -359h475v-51h-555z" />
<glyph unicode="&#xbe;" horiz-adv-x="1653" d="M82 889h57q1 -83 37.5 -138.5t88.5 -79.5t102 -24q105 0 166 66t61 166q0 54 -26 107t-81 88.5t-137 35.5h-55v53h55q111 0 149 57t38 107q0 43 -19.5 82t-55 61.5t-85.5 24.5q-73 0 -119 -47t-49 -121h-57q4 75 38.5 124.5t85.5 72t101 22.5q86 0 151.5 -61.5 t65.5 -155.5q0 -78 -37 -122t-80 -66q76 -31 125 -101.5t49 -156.5q0 -83 -36.5 -148.5t-101.5 -102t-146 -36.5q-70 0 -135.5 33t-107 99t-42.5 161zM514 0l674 1530h61l-676 -1530h-59zM956 176v43l457 699h68v-691h86v-51h-86v-176h-58v176h-467zM1026 227h397v615l2 -4 l-4 4z" />
<glyph unicode="&#xbf;" horiz-adv-x="1098" d="M141 -25q0 59 20.5 112.5t53.5 99t87.5 102t82.5 84.5q103 104 128.5 190.5t25.5 190.5h61q-2 -82 -13 -148t-51 -139.5t-122 -151.5q-39 -40 -81.5 -84t-68.5 -80t-42 -79.5t-19 -100.5q0 -98 48 -182.5t133.5 -134t188.5 -49.5q86 0 172 38t145.5 121.5t63.5 208.5h62 q-7 -152 -79 -250t-171 -140t-191 -42q-115 0 -214 55t-159.5 155t-60.5 224zM541 928v168h59v-168h-59z" />
<glyph unicode="&#xc0;" horiz-adv-x="1407" d="M14 0l650 1530h79l650 -1530h-66l-227 535h-793l-227 -535h-66zM334 590h739l-371 883zM430 1919l29 49l485 -287l-26 -47z" />
<glyph unicode="&#xc1;" horiz-adv-x="1407" d="M14 0l650 1530h79l650 -1530h-66l-227 535h-793l-227 -535h-66zM334 590h739l-371 883zM463 1681l485 287l29 -49l-488 -285z" />
<glyph unicode="&#xc2;" horiz-adv-x="1407" d="M14 0l650 1530h79l650 -1530h-66l-227 535h-793l-227 -535h-66zM303 1702l399 227l402 -227l-53 -31l-349 195l-348 -195zM334 590h739l-371 883z" />
<glyph unicode="&#xc3;" horiz-adv-x="1407" d="M14 0l650 1530h79l650 -1530h-66l-227 535h-793l-227 -535h-66zM332 1808q41 34 88 53t112 19q69 0 175 -49q62 -33 97.5 -44t84.5 -11q36 0 68 11t75 36l41 -43q-101 -68 -182 -68q-100 0 -186 53q-63 34 -98.5 46t-74.5 12q-92 0 -159 -56zM334 590h739l-371 883z" />
<glyph unicode="&#xc4;" horiz-adv-x="1407" d="M14 0l650 1530h79l650 -1530h-66l-227 535h-793l-227 -535h-66zM334 590h739l-371 883zM551 1661v240h59v-240h-59zM797 1661v240h59v-240h-59z" />
<glyph unicode="&#xc5;" horiz-adv-x="1407" d="M14 0l650 1530h79l650 -1530h-66l-227 535h-793l-227 -535h-66zM334 590h739l-371 883zM516 1751q0 77 55.5 132.5t130.5 55.5q52 0 95.5 -25.5t68.5 -69t25 -93.5q0 -78 -55 -133t-134 -55q-76 0 -131 55t-55 133zM573 1753q0 -52 37.5 -91.5t91.5 -39.5q55 0 93.5 38.5 t38.5 92.5q0 37 -17.5 66.5t-49 48t-65.5 18.5q-54 0 -91.5 -40t-37.5 -93z" />
<glyph unicode="&#xc6;" horiz-adv-x="1933" d="M-16 0l1048 1530h750v-55h-647v-676h647v-56h-647v-688h647v-55h-709v547h-645l-375 -547h-69zM473 602h600v891h-4z" />
<glyph unicode="&#xc7;" horiz-adv-x="1610" d="M84 766q0 224 105 405.5t286 284.5t395 103q113 0 217 -31.5t190 -85.5t151 -119.5t106 -132.5h-72q-41 58 -117.5 128t-198.5 126t-276 57q-149 0 -281 -54.5t-232 -154.5t-156 -234.5t-56 -291.5t56 -292t157 -236t234 -155t278 -54q159 0 284 57t200 127.5t108 120.5 h70q-36 -64 -101.5 -130t-150 -117.5t-191 -82.5t-219.5 -31h-10l-41 -90l4 -2q12 6 27 6q46 0 79 -21t50.5 -54.5t17.5 -69.5q0 -63 -39.5 -110.5t-109.5 -47.5q-42 0 -90 25t-62 104h56q18 -73 96 -73q22 0 44 11t35 33.5t15 57.5q-1 41 -28.5 66.5t-65.5 25.5 q-55 0 -84 -51l-45 10l84 184q-150 12 -280.5 75t-229.5 169t-154 245.5t-55 299.5z" />
<glyph unicode="&#xc8;" horiz-adv-x="1128" d="M158 0v1530h831v-55h-770v-676h770v-56h-770v-688h770v-55h-831zM287 1919l28 49l486 -287l-27 -47z" />
<glyph unicode="&#xc9;" horiz-adv-x="1128" d="M158 0v1530h831v-55h-770v-676h770v-56h-770v-688h770v-55h-831zM319 1681l486 287l29 -49l-488 -285z" />
<glyph unicode="&#xca;" horiz-adv-x="1128" d="M158 0v1530h831v-55h-770v-676h770v-56h-770v-688h770v-55h-831zM160 1702l399 227l402 -227l-54 -31l-348 195l-348 -195z" />
<glyph unicode="&#xcb;" horiz-adv-x="1128" d="M158 0v1530h831v-55h-770v-676h770v-56h-770v-688h770v-55h-831zM408 1661v240h59v-240h-59zM653 1661v240h60v-240h-60z" />
<glyph unicode="&#xcc;" horiz-adv-x="717" d="M-125 1919l29 49l485 -287l-27 -47zM158 0v1530h61v-1530h-61z" />
<glyph unicode="&#xcd;" horiz-adv-x="799" d="M-10 1681l485 287l29 -49l-488 -285zM158 0v1530h61v-1530h-61z" />
<glyph unicode="&#xce;" horiz-adv-x="758" d="M-211 1702l399 227l402 -227l-53 -31l-349 195l-348 -195zM158 0v1530h61v-1530h-61z" />
<glyph unicode="&#xcf;" horiz-adv-x="758" d="M37 1661v240h59v-240h-59zM158 0v1530h61v-1530h-61zM283 1661v240h59v-240h-59z" />
<glyph unicode="&#xd0;" horiz-adv-x="1436" d="M0 743v56h158v731h428q177 0 320.5 -52t241 -149t150 -240.5t52.5 -322.5t-52 -322t-151 -242t-241.5 -150.5t-319.5 -51.5h-428v743h-158zM219 55h367q218 0 376.5 84.5t242 244t83.5 378.5q0 222 -83 382.5t-241 245.5t-378 85h-367v-676h514v-56h-514v-688z" />
<glyph unicode="&#xd1;" horiz-adv-x="1511" d="M158 0v1530h92l1038 -1448h4v1448h62v-1530h-78l-1053 1468h-4v-1468h-61zM385 1808q41 34 89 53t112 19q69 0 174 -49q62 -33 98.5 -44t83.5 -11q36 0 68 11t75 36l41 -43q-101 -68 -182 -68q-100 0 -186 53q-63 34 -98.5 46t-73.5 12q-91 0 -160 -56z" />
<glyph unicode="&#xd2;" horiz-adv-x="1743" d="M84 766q0 224 105 405.5t286 284.5t395 103q161 0 305.5 -58.5t253 -166.5t168.5 -253.5t60 -314.5q0 -225 -105 -406.5t-286.5 -284t-395.5 -102.5q-213 0 -394.5 102.5t-286.5 284t-105 406.5zM145 766q0 -157 56 -292t157 -236t234 -155t278 -54q146 0 279.5 54.5 t234 155t156 235.5t55.5 292t-55 291.5t-155 234t-232.5 154.5t-282.5 55q-149 0 -281 -54.5t-232 -154.5t-156 -234.5t-56 -291.5zM598 1919l29 49l485 -287l-27 -47z" />
<glyph unicode="&#xd3;" horiz-adv-x="1743" d="M84 766q0 224 105 405.5t286 284.5t395 103q161 0 305.5 -58.5t253 -166.5t168.5 -253.5t60 -314.5q0 -225 -105 -406.5t-286.5 -284t-395.5 -102.5q-213 0 -394.5 102.5t-286.5 284t-105 406.5zM145 766q0 -157 56 -292t157 -236t234 -155t278 -54q146 0 279.5 54.5 t234 155t156 235.5t55.5 292t-55 291.5t-155 234t-232.5 154.5t-282.5 55q-149 0 -281 -54.5t-232 -154.5t-156 -234.5t-56 -291.5zM631 1681l485 287l29 -49l-488 -285z" />
<glyph unicode="&#xd4;" horiz-adv-x="1743" d="M84 766q0 224 105 405.5t286 284.5t395 103q161 0 305.5 -58.5t253 -166.5t168.5 -253.5t60 -314.5q0 -225 -105 -406.5t-286.5 -284t-395.5 -102.5q-213 0 -394.5 102.5t-286.5 284t-105 406.5zM145 766q0 -157 56 -292t157 -236t234 -155t278 -54q146 0 279.5 54.5 t234 155t156 235.5t55.5 292t-55 291.5t-155 234t-232.5 154.5t-282.5 55q-149 0 -281 -54.5t-232 -154.5t-156 -234.5t-56 -291.5zM471 1702l399 227l402 -227l-53 -31l-349 195l-348 -195z" />
<glyph unicode="&#xd5;" horiz-adv-x="1743" d="M84 766q0 224 105 405.5t286 284.5t395 103q161 0 305.5 -58.5t253 -166.5t168.5 -253.5t60 -314.5q0 -225 -105 -406.5t-286.5 -284t-395.5 -102.5q-213 0 -394.5 102.5t-286.5 284t-105 406.5zM145 766q0 -157 56 -292t157 -236t234 -155t278 -54q146 0 279.5 54.5 t234 155t156 235.5t55.5 292t-55 291.5t-155 234t-232.5 154.5t-282.5 55q-149 0 -281 -54.5t-232 -154.5t-156 -234.5t-56 -291.5zM500 1808q41 34 88 53t112 19q69 0 174 -49q62 -33 98 -44t85 -11q36 0 68 11t75 36l41 -43q-101 -68 -182 -68q-100 0 -187 53 q-66 35 -99.5 46.5t-72.5 11.5q-92 0 -159 -56z" />
<glyph unicode="&#xd6;" horiz-adv-x="1743" d="M84 766q0 224 105 405.5t286 284.5t395 103q161 0 305.5 -58.5t253 -166.5t168.5 -253.5t60 -314.5q0 -225 -105 -406.5t-286.5 -284t-395.5 -102.5q-213 0 -394.5 102.5t-286.5 284t-105 406.5zM145 766q0 -157 56 -292t157 -236t234 -155t278 -54q146 0 279.5 54.5 t234 155t156 235.5t55.5 292t-55 291.5t-155 234t-232.5 154.5t-282.5 55q-149 0 -281 -54.5t-232 -154.5t-156 -234.5t-56 -291.5zM719 1661v240h59v-240h-59zM965 1661v240h59v-240h-59z" />
<glyph unicode="&#xd7;" horiz-adv-x="1229" d="M102 47l469 473l-469 467l41 45l471 -471l471 471l41 -45l-469 -467l469 -473l-41 -43l-471 473l-471 -473z" />
<glyph unicode="&#xd8;" horiz-adv-x="1743" d="M84 766q0 224 105 405.5t286 284.5t395 103q122 0 238.5 -36.5t210.5 -99.5l180 250l49 -37l-180 -250q90 -73 155 -169.5t99.5 -209.5t34.5 -241q0 -225 -105 -406.5t-286.5 -284t-395.5 -102.5q-119 0 -228.5 32.5t-201.5 92.5l-200 -276l-47 37l196 274 q-92 69 -161.5 167t-106.5 216t-37 250zM145 766q0 -91 19.5 -175t55.5 -158.5t87.5 -138t116.5 -114.5l860 1196q-58 39 -124.5 67t-139.5 43t-150 15q-149 0 -281 -54.5t-232 -154.5t-156 -234.5t-56 -291.5zM475 147q176 -118 395 -118q146 0 279.5 54.5t234 155 t156 235.5t55.5 292q0 178 -69.5 325.5t-192.5 245.5z" />
<glyph unicode="&#xd9;" horiz-adv-x="1239" d="M156 539v991h61v-991q0 -94 4 -146.5t24.5 -108t65.5 -114.5q35 -46 85 -77t108.5 -47.5t118.5 -16.5q56 0 113.5 16.5t107 47.5t84.5 77q45 59 65.5 114.5t24.5 108t4 146.5v991h61v-991q0 -152 -32 -270t-150 -203q-59 -44 -132.5 -68.5t-150.5 -24.5q-155 0 -280 93 q-82 58 -122 139t-50 157.5t-10 176.5zM346 1919l29 49l485 -287l-26 -47z" />
<glyph unicode="&#xda;" horiz-adv-x="1239" d="M156 539v991h61v-991q0 -94 4 -146.5t24.5 -108t65.5 -114.5q35 -46 85 -77t108.5 -47.5t118.5 -16.5q56 0 113.5 16.5t107 47.5t84.5 77q45 59 65.5 114.5t24.5 108t4 146.5v991h61v-991q0 -152 -32 -270t-150 -203q-59 -44 -132.5 -68.5t-150.5 -24.5q-155 0 -280 93 q-82 58 -122 139t-50 157.5t-10 176.5zM379 1681l485 287l29 -49l-487 -285z" />
<glyph unicode="&#xdb;" horiz-adv-x="1239" d="M156 539v991h61v-991q0 -94 4 -146.5t24.5 -108t65.5 -114.5q35 -46 85 -77t108.5 -47.5t118.5 -16.5q56 0 113.5 16.5t107 47.5t84.5 77q45 59 65.5 114.5t24.5 108t4 146.5v991h61v-991q0 -152 -32 -270t-150 -203q-59 -44 -132.5 -68.5t-150.5 -24.5q-155 0 -280 93 q-82 58 -122 139t-50 157.5t-10 176.5zM219 1702l399 227l402 -227l-53 -31l-349 195l-348 -195z" />
<glyph unicode="&#xdc;" horiz-adv-x="1239" d="M156 539v991h61v-991q0 -94 4 -146.5t24.5 -108t65.5 -114.5q35 -46 85 -77t108.5 -47.5t118.5 -16.5q56 0 113.5 16.5t107 47.5t84.5 77q45 59 65.5 114.5t24.5 108t4 146.5v991h61v-991q0 -152 -32 -270t-150 -203q-59 -44 -132.5 -68.5t-150.5 -24.5q-155 0 -280 93 q-82 58 -122 139t-50 157.5t-10 176.5zM467 1661v240h59v-240h-59zM713 1661v240h59v-240h-59z" />
<glyph unicode="&#xdd;" d="M31 1530h67l469 -932l467 932h70l-506 -1002v-528h-61v528zM328 1681l485 287l29 -49l-488 -285z" />
<glyph unicode="&#xde;" horiz-adv-x="1047" d="M137 0v1530h62v-322h290q150 0 228 -18t151 -74q68 -48 111 -144t43 -198q0 -103 -42.5 -198t-111.5 -146q-72 -54 -150.5 -72t-228.5 -18h-290v-340h-62zM199 395h293q134 0 206.5 18.5t137.5 65.5q54 44 89.5 124.5t35.5 168.5q0 91 -35.5 172.5t-89.5 122.5 q-64 48 -139 67t-205 19h-293v-758z" />
<glyph unicode="&#xdf;" horiz-adv-x="1145" d="M156 0v977q0 120 7 195t24.5 127t48.5 94q51 77 135.5 120t175.5 43q124 0 214 -51t138.5 -144.5t48.5 -211.5q0 -101 -49.5 -208t-177.5 -159v-4q110 -14 186.5 -74t114 -145.5t37.5 -175.5q0 -119 -56.5 -212.5t-149.5 -145.5t-196 -52q-99 2 -188 41.5t-150.5 134 t-68.5 246.5h57q6 -137 63.5 -219.5t136 -114.5t157.5 -34q86 0 164.5 44.5t125.5 124.5t47 177q0 67 -25.5 143.5t-103.5 140.5q-55 41 -117.5 61t-191.5 21h-57v54h55q85 0 161 46t122.5 128.5t46.5 181.5q0 168 -93.5 260t-248.5 92q-77 0 -149.5 -36t-110.5 -93 q-28 -43 -42 -79t-21.5 -81t-10 -113.5t-2.5 -121.5v-977h-57z" />
<glyph unicode="&#xe0;" horiz-adv-x="1380" d="M84 549q0 112 39.5 216t116.5 185.5t182.5 126.5t232.5 45q185 0 323 -93.5t181 -211.5h4v279h58v-1096h-58v272h-4q-45 -90 -120 -158.5t-172 -104.5t-212 -36q-126 0 -233.5 46.5t-183.5 129t-115 187t-39 213.5zM141 549q2 -130 60.5 -250.5t176.5 -196t284 -75.5 q146 0 262 70.5t180.5 190t64.5 261.5q0 110 -39 206t-109 166.5t-164 109t-202 38.5q-106 0 -199.5 -38.5t-164 -107t-110.5 -165.5t-40 -209zM418 1536l28 49l486 -287l-27 -47z" />
<glyph unicode="&#xe1;" horiz-adv-x="1380" d="M84 549q0 112 39.5 216t116.5 185.5t182.5 126.5t232.5 45q185 0 323 -93.5t181 -211.5h4v279h58v-1096h-58v272h-4q-45 -90 -120 -158.5t-172 -104.5t-212 -36q-126 0 -233.5 46.5t-183.5 129t-115 187t-39 213.5zM141 549q2 -130 60.5 -250.5t176.5 -196t284 -75.5 q146 0 262 70.5t180.5 190t64.5 261.5q0 110 -39 206t-109 166.5t-164 109t-202 38.5q-106 0 -199.5 -38.5t-164 -107t-110.5 -165.5t-40 -209zM440 1298l486 287l28 -49l-487 -285z" />
<glyph unicode="&#xe2;" horiz-adv-x="1380" d="M84 549q0 112 39.5 216t116.5 185.5t182.5 126.5t232.5 45q185 0 323 -93.5t181 -211.5h4v279h58v-1096h-58v272h-4q-45 -90 -120 -158.5t-172 -104.5t-212 -36q-126 0 -233.5 46.5t-183.5 129t-115 187t-39 213.5zM141 549q2 -130 60.5 -250.5t176.5 -196t284 -75.5 q146 0 262 70.5t180.5 190t64.5 261.5q0 110 -39 206t-109 166.5t-164 109t-202 38.5q-106 0 -199.5 -38.5t-164 -107t-110.5 -165.5t-40 -209zM291 1319l399 227l402 -227l-54 -31l-348 195l-348 -195z" />
<glyph unicode="&#xe3;" horiz-adv-x="1380" d="M84 549q0 112 39.5 216t116.5 185.5t182.5 126.5t232.5 45q185 0 323 -93.5t181 -211.5h4v279h58v-1096h-58v272h-4q-45 -90 -120 -158.5t-172 -104.5t-212 -36q-126 0 -233.5 46.5t-183.5 129t-115 187t-39 213.5zM141 549q2 -130 60.5 -250.5t176.5 -196t284 -75.5 q146 0 262 70.5t180.5 190t64.5 261.5q0 110 -39 206t-109 166.5t-164 109t-202 38.5q-106 0 -199.5 -38.5t-164 -107t-110.5 -165.5t-40 -209zM319 1405q41 34 88.5 53t112.5 19q34 0 73.5 -10.5t100.5 -39.5q62 -33 98 -44t85 -11q36 0 68 11t75 36l41 -43 q-99 -67 -182 -67q-100 0 -187 53q-66 35 -98.5 46t-73.5 11q-92 0 -160 -55z" />
<glyph unicode="&#xe4;" horiz-adv-x="1380" d="M84 549q0 112 39.5 216t116.5 185.5t182.5 126.5t232.5 45q185 0 323 -93.5t181 -211.5h4v279h58v-1096h-58v272h-4q-45 -90 -120 -158.5t-172 -104.5t-212 -36q-126 0 -233.5 46.5t-183.5 129t-115 187t-39 213.5zM141 549q2 -130 60.5 -250.5t176.5 -196t284 -75.5 q146 0 262 70.5t180.5 190t64.5 261.5q0 110 -39 206t-109 166.5t-164 109t-202 38.5q-106 0 -199.5 -38.5t-164 -107t-110.5 -165.5t-40 -209zM539 1278v240h59v-240h-59zM784 1278v240h60v-240h-60z" />
<glyph unicode="&#xe5;" horiz-adv-x="1380" d="M84 549q0 112 39.5 216t116.5 185.5t182.5 126.5t232.5 45q185 0 323 -93.5t181 -211.5h4v279h58v-1096h-58v272h-4q-45 -90 -120 -158.5t-172 -104.5t-212 -36q-126 0 -233.5 46.5t-183.5 129t-115 187t-39 213.5zM141 549q2 -130 60.5 -250.5t176.5 -196t284 -75.5 q146 0 262 70.5t180.5 190t64.5 261.5q0 110 -39 206t-109 166.5t-164 109t-202 38.5q-106 0 -199.5 -38.5t-164 -107t-110.5 -165.5t-40 -209zM504 1415q0 78 55.5 133.5t130.5 55.5q80 0 134.5 -55.5t54.5 -133.5t-55 -133t-134 -55q-76 0 -131 55t-55 133zM561 1417 q0 -52 38.5 -91.5t90.5 -39.5q34 0 64.5 17.5t48.5 48t18 65.5q0 55 -37.5 94t-93.5 39q-54 0 -91.5 -39.5t-37.5 -93.5z" />
<glyph unicode="&#xe6;" horiz-adv-x="2363" d="M84 547q0 160 75 292.5t204 207.5t288 75q92 0 178.5 -27.5t161 -84.5t125.5 -140q11 -17 41 -94h4v320h58v-318h4q33 82 41 94q158 250 446 250q171 0 299.5 -80t197.5 -213t72 -286h-1060q17 -195 104.5 -310t197.5 -160.5t205 -45.5q155 0 269 84t184 206h68 q-38 -84 -112 -163.5t-177 -130t-225 -50.5q-94 0 -178.5 27t-156 81t-122.5 130q-31 47 -53 125h-4v-336h-58v336h-4q-23 -86 -53 -127q-87 -130 -214 -182t-235 -54q-160 0 -291 75.5t-205.5 207t-74.5 293.5v-2zM141 549q0 -148 67.5 -267.5t186 -187t262.5 -67.5 q134 0 251 71t186 191.5t69 259.5q0 134 -68.5 255.5t-185 193t-252.5 71.5q-144 0 -263 -68t-186 -186.5t-67 -265.5zM1221 596h995q-18 118 -62.5 206t-110.5 147.5t-149 89.5t-180 30q-220 0 -364 -170q-43 -48 -69 -98t-39 -101.5t-21 -103.5z" />
<glyph unicode="&#xe7;" horiz-adv-x="1268" d="M84 549q1 121 43.5 225.5t120 183t181.5 121.5t226 43q113 0 222 -42.5t193 -128.5t126 -210h-63q-40 115 -119 188.5t-172.5 106.5t-184.5 33q-115 -2 -198 -36t-168 -111q-66 -60 -108 -163t-42 -210q0 -150 69.5 -270t188 -186t256.5 -66q90 1 168 26.5t140 71 t105 103t62 118.5h64q-58 -169 -203 -269.5t-336 -103.5h-4l-41 -90l4 -2q12 6 27 6q46 0 79 -21t50.5 -54.5t17.5 -69.5q0 -63 -39.5 -110.5t-109.5 -47.5q-42 0 -90 25t-62 104h56q18 -73 96 -73q22 0 44 11t35 33.5t15 57.5q-1 41 -28.5 66.5t-65.5 25.5q-55 0 -84 -51 l-45 10l84 187q-144 12 -260 86.5t-183 200.5t-67 282z" />
<glyph unicode="&#xe8;" horiz-adv-x="1268" d="M63 547q0 120 43.5 225.5t122.5 184.5t183 122t225 43q147 0 275 -67.5t207.5 -193.5t86.5 -288l-2 -30h-1081q1 -167 81 -284t198 -174.5t235 -57.5q153 0 276.5 76.5t186.5 213.5h63q-48 -114 -130.5 -191.5t-184 -115t-213.5 -37.5q-163 0 -293.5 75t-204.5 206.5 t-74 294.5v-2zM125 596h1022q-4 93 -47 181t-113 152.5t-160.5 102t-189.5 37.5q-133 0 -247.5 -61t-186 -169t-78.5 -243zM360 1536l29 49l485 -287l-26 -47z" />
<glyph unicode="&#xe9;" horiz-adv-x="1268" d="M63 547q0 120 43.5 225.5t122.5 184.5t183 122t225 43q147 0 275 -67.5t207.5 -193.5t86.5 -288l-2 -30h-1081q1 -167 81 -284t198 -174.5t235 -57.5q153 0 276.5 76.5t186.5 213.5h63q-48 -114 -130.5 -191.5t-184 -115t-213.5 -37.5q-163 0 -293.5 75t-204.5 206.5 t-74 294.5v-2zM125 596h1022q-4 93 -47 181t-113 152.5t-160.5 102t-189.5 37.5q-133 0 -247.5 -61t-186 -169t-78.5 -243zM383 1298l485 287l29 -49l-487 -285z" />
<glyph unicode="&#xea;" horiz-adv-x="1268" d="M63 547q0 120 43.5 225.5t122.5 184.5t183 122t225 43q147 0 275 -67.5t207.5 -193.5t86.5 -288l-2 -30h-1081q1 -167 81 -284t198 -174.5t235 -57.5q153 0 276.5 76.5t186.5 213.5h63q-48 -114 -130.5 -191.5t-184 -115t-213.5 -37.5q-163 0 -293.5 75t-204.5 206.5 t-74 294.5v-2zM125 596h1022q-4 93 -47 181t-113 152.5t-160.5 102t-189.5 37.5q-133 0 -247.5 -61t-186 -169t-78.5 -243zM233 1319l400 227l401 -227l-53 -31l-348 195l-348 -195z" />
<glyph unicode="&#xeb;" horiz-adv-x="1268" d="M63 547q0 120 43.5 225.5t122.5 184.5t183 122t225 43q147 0 275 -67.5t207.5 -193.5t86.5 -288l-2 -30h-1081q1 -167 81 -284t198 -174.5t235 -57.5q153 0 276.5 76.5t186.5 213.5h63q-48 -114 -130.5 -191.5t-184 -115t-213.5 -37.5q-163 0 -293.5 75t-204.5 206.5 t-74 294.5v-2zM125 596h1022q-4 93 -47 181t-113 152.5t-160.5 102t-189.5 37.5q-133 0 -247.5 -61t-186 -169t-78.5 -243zM471 1278v240h59v-240h-59zM717 1278v240h59v-240h-59z" />
<glyph unicode="&#xec;" horiz-adv-x="717" d="M-125 1536l29 49l485 -287l-27 -47zM160 0v1096h57v-1096h-57z" />
<glyph unicode="&#xed;" horiz-adv-x="799" d="M-10 1298l485 287l29 -49l-488 -285zM160 0v1096h57v-1096h-57z" />
<glyph unicode="&#xee;" horiz-adv-x="758" d="M-211 1319l399 227l402 -227l-53 -31l-349 195l-348 -195zM160 0v1096h57v-1096h-57z" />
<glyph unicode="&#xef;" horiz-adv-x="758" d="M37 1278v240h59v-240h-59zM160 0v1096h57v-1096h-57zM283 1278v240h59v-240h-59z" />
<glyph unicode="&#xf0;" horiz-adv-x="1313" d="M84 547q3 168 77.5 298.5t204.5 202t291 74.5q116 0 226.5 -48t181.5 -136l4 4q-52 81 -119.5 150t-147.5 127t-171 106l-391 -158l-41 41l368 152q-81 41 -163.5 74.5t-176.5 64.5l70 31q190 -64 340 -144l358 144l39 -43l-334 -133q146 -86 249.5 -181t165 -195.5 t88 -205.5t26.5 -221q0 -135 -48 -241.5t-130.5 -180.5t-186 -113.5t-209.5 -42.5q-111 0 -211.5 37t-181.5 110t-129 181.5t-49 245.5zM141 549q0 -147 67 -267t185 -187.5t262 -67.5q147 0 265 68.5t184.5 188.5t66.5 267q0 107 -40.5 201t-112 165.5t-164 111.5 t-195.5 40q-148 -1 -266.5 -69.5t-185 -187t-66.5 -263.5z" />
<glyph unicode="&#xf1;" horiz-adv-x="1313" d="M160 0v1096h57v-211h4q34 78 103 130.5t157.5 79.5t175.5 27q209 0 340 -108q80 -68 119 -177t39 -257v-580h-57v580q0 137 -34.5 232.5t-98.5 154.5q-114 102 -308 102q-134 -1 -234 -54t-153 -152t-53 -232v-631h-57zM285 1405q41 34 88 53t112 19q34 0 73.5 -10.5 t100.5 -39.5q62 -33 98 -44t85 -11q36 0 68 11t75 36l41 -43q-99 -67 -182 -67q-100 0 -187 53q-67 36 -98.5 46.5t-73.5 10.5q-93 0 -159 -55z" />
<glyph unicode="&#xf2;" horiz-adv-x="1313" d="M84 549q0 119 43 224.5t120.5 184t182 121.5t225.5 43q122 0 226.5 -43t182.5 -121t120.5 -183t42.5 -226q0 -162 -74.5 -293.5t-205.5 -207t-292 -75.5q-160 0 -291 75.5t-205.5 207t-74.5 293.5zM141 549q0 -148 67.5 -267.5t185.5 -187t261 -67.5t261 67.5t185.5 187 t67.5 267.5q0 147 -67.5 266t-185.5 186.5t-261 67.5t-261 -67.5t-185.5 -186.5t-67.5 -266zM383 1536l29 49l485 -287l-27 -47z" />
<glyph unicode="&#xf3;" horiz-adv-x="1313" d="M84 549q0 119 43 224.5t120.5 184t182 121.5t225.5 43q122 0 226.5 -43t182.5 -121t120.5 -183t42.5 -226q0 -162 -74.5 -293.5t-205.5 -207t-292 -75.5q-160 0 -291 75.5t-205.5 207t-74.5 293.5zM141 549q0 -148 67.5 -267.5t185.5 -187t261 -67.5t261 67.5t185.5 187 t67.5 267.5q0 147 -67.5 266t-185.5 186.5t-261 67.5t-261 -67.5t-185.5 -186.5t-67.5 -266zM406 1298l485 287l29 -49l-488 -285z" />
<glyph unicode="&#xf4;" horiz-adv-x="1313" d="M84 549q0 119 43 224.5t120.5 184t182 121.5t225.5 43q122 0 226.5 -43t182.5 -121t120.5 -183t42.5 -226q0 -162 -74.5 -293.5t-205.5 -207t-292 -75.5q-160 0 -291 75.5t-205.5 207t-74.5 293.5zM141 549q0 -148 67.5 -267.5t185.5 -187t261 -67.5t261 67.5t185.5 187 t67.5 267.5q0 147 -67.5 266t-185.5 186.5t-261 67.5t-261 -67.5t-185.5 -186.5t-67.5 -266zM256 1319l399 227l402 -227l-53 -31l-349 195l-348 -195z" />
<glyph unicode="&#xf5;" horiz-adv-x="1313" d="M84 549q0 119 43 224.5t120.5 184t182 121.5t225.5 43q122 0 226.5 -43t182.5 -121t120.5 -183t42.5 -226q0 -162 -74.5 -293.5t-205.5 -207t-292 -75.5q-160 0 -291 75.5t-205.5 207t-74.5 293.5zM141 549q0 -148 67.5 -267.5t185.5 -187t261 -67.5t261 67.5t185.5 187 t67.5 267.5q0 147 -67.5 266t-185.5 186.5t-261 67.5t-261 -67.5t-185.5 -186.5t-67.5 -266zM285 1405q41 34 88 53t112 19q34 0 73.5 -10.5t100.5 -39.5q62 -33 98 -44t85 -11q36 0 68 11t75 36l41 -43q-99 -67 -182 -67q-100 0 -187 53q-67 36 -98.5 46.5t-73.5 10.5 q-93 0 -159 -55z" />
<glyph unicode="&#xf6;" horiz-adv-x="1313" d="M84 549q0 119 43 224.5t120.5 184t182 121.5t225.5 43q122 0 226.5 -43t182.5 -121t120.5 -183t42.5 -226q0 -162 -74.5 -293.5t-205.5 -207t-292 -75.5q-160 0 -291 75.5t-205.5 207t-74.5 293.5zM141 549q0 -148 67.5 -267.5t185.5 -187t261 -67.5t261 67.5t185.5 187 t67.5 267.5q0 147 -67.5 266t-185.5 186.5t-261 67.5t-261 -67.5t-185.5 -186.5t-67.5 -266zM504 1278v240h59v-240h-59zM750 1278v240h59v-240h-59z" />
<glyph unicode="&#xf7;" horiz-adv-x="1229" d="M102 487v60h1024v-60h-1024zM584 0v168h61v-168h-61zM584 866v168h61v-168h-61z" />
<glyph unicode="&#xf8;" horiz-adv-x="1313" d="M84 549q0 119 43 224.5t120.5 184t182 121.5t225.5 43q181 0 314 -90l127 178l43 -34l-123 -175q99 -81 155 -198t56 -254q0 -162 -74.5 -293.5t-205.5 -207t-292 -75.5q-174 0 -313 90l-123 -172l-45 37l123 168q-67 53 -114.5 122.5t-73 154t-25.5 176.5zM141 549 q0 -124 50 -231t137 -177l608 846q-124 82 -281 82q-143 0 -261 -67.5t-185.5 -186.5t-67.5 -266zM373 109q125 -82 282 -82q143 0 261 67.5t185.5 187t67.5 267.5q0 124 -49 229.5t-137 177.5z" />
<glyph unicode="&#xf9;" horiz-adv-x="1313" d="M160 518v578h57v-578q0 -137 34.5 -233t98.5 -154q112 -104 307 -104q137 2 236 54t152 153.5t53 238.5v623h57v-1096h-57v221h-4q-35 -84 -102 -139t-155.5 -82t-179.5 -27q-210 0 -340 109q-79 68 -118 178t-39 258zM383 1536l29 49l485 -287l-27 -47z" />
<glyph unicode="&#xfa;" horiz-adv-x="1313" d="M160 518v578h57v-578q0 -137 34.5 -233t98.5 -154q112 -104 307 -104q137 2 236 54t152 153.5t53 238.5v623h57v-1096h-57v221h-4q-35 -84 -102 -139t-155.5 -82t-179.5 -27q-210 0 -340 109q-79 68 -118 178t-39 258zM416 1298l485 287l29 -49l-488 -285z" />
<glyph unicode="&#xfb;" horiz-adv-x="1313" d="M160 518v578h57v-578q0 -137 34.5 -233t98.5 -154q112 -104 307 -104q137 2 236 54t152 153.5t53 238.5v623h57v-1096h-57v221h-4q-35 -84 -102 -139t-155.5 -82t-179.5 -27q-210 0 -340 109q-79 68 -118 178t-39 258zM256 1319l399 227l402 -227l-53 -31l-349 195 l-348 -195z" />
<glyph unicode="&#xfc;" horiz-adv-x="1313" d="M160 518v578h57v-578q0 -137 34.5 -233t98.5 -154q112 -104 307 -104q137 2 236 54t152 153.5t53 238.5v623h57v-1096h-57v221h-4q-35 -84 -102 -139t-155.5 -82t-179.5 -27q-210 0 -340 109q-79 68 -118 178t-39 258zM504 1278v240h59v-240h-59zM750 1278v240h59v-240 h-59z" />
<glyph unicode="&#xfd;" horiz-adv-x="1061" d="M23 1096h63l401 -1016l428 1016h68l-657 -1536h-66l193 442zM252 1298l485 287l29 -49l-487 -285z" />
<glyph unicode="&#xfe;" horiz-adv-x="1395" d="M160 -440v1970h57v-729h4q58 126 153.5 197.5t189.5 97.5t171 26q122 0 226.5 -43t183 -121t121.5 -182.5t43 -226.5q0 -163 -75 -294t-207 -206.5t-292 -75.5q-169 0 -307.5 88.5t-206.5 227.5h-4v-729h-57zM217 543q0 -96 38 -188.5t111.5 -168t167.5 -117.5t203 -42 q144 0 262 67.5t185 187.5t67 267q0 146 -66.5 265t-185 187t-262.5 68q-134 0 -254.5 -66t-193 -186.5t-72.5 -273.5z" />
<glyph unicode="&#xff;" horiz-adv-x="1061" d="M23 1096h63l401 -1016l428 1016h68l-657 -1536h-66l193 442zM340 1278v240h59v-240h-59zM586 1278v240h59v-240h-59z" />
<glyph unicode="&#x152;" horiz-adv-x="2413" d="M84 766q0 228 103 409.5t280 282.5t389 101q169 0 319 -63.5t254 -177t148 -261.5h4v473h707v-55h-646v-676h646v-56h-646v-688h646v-55h-707v473h-4q-42 -145 -146 -258.5t-252.5 -177.5t-314.5 -64q-163 0 -305.5 58t-249.5 165t-166 253.5t-59 316.5zM145 766 q0 -159 54.5 -293.5t152.5 -234.5t229.5 -154.5t278.5 -54.5q163 0 297 61.5t227.5 166.5t143.5 232.5t53 255.5v46q-5 171 -90 334.5t-247 269.5t-384 106q-147 0 -277 -53t-229 -152t-154 -235t-55 -295z" />
<glyph unicode="&#x153;" horiz-adv-x="2367" d="M84 547q0 160 75 292.5t205 207.5t291 75q129 0 241 -54t191 -150q66 -86 103 -197l4 10q39 113 102.5 188.5t137.5 117.5t147 59.5t141 17.5q119 0 223 -45t181.5 -125.5t118.5 -183.5t41 -215h-1061q6 -124 50.5 -223t117.5 -165t160.5 -98t177.5 -32q91 0 182 33 t161.5 99.5t104.5 162.5h64q-31 -77 -73.5 -140.5t-129.5 -122.5q-148 -86 -309 -86q-99 0 -207 40t-198 128.5t-128 227.5h-4q-57 -144 -145 -232t-189.5 -126t-204.5 -38q-160 0 -291 75.5t-205.5 207t-74.5 293.5v-2zM141 549q0 -148 67.5 -267.5t185.5 -187t261 -67.5 q144 0 260 73.5t182 193.5t66 251q0 97 -36 189.5t-102.5 168.5t-161.5 121t-208 45q-143 0 -261 -67.5t-185.5 -186.5t-67.5 -266zM1227 598h991q-3 69 -35 148t-94 151.5t-156 118t-213 45.5q-94 0 -178 -33t-153 -97t-109.5 -147.5t-52.5 -185.5z" />
<glyph unicode="&#x178;" d="M31 1530h67l469 -932l467 932h70l-506 -1002v-528h-61v528zM416 1661v240h59v-240h-59zM662 1661v240h59v-240h-59z" />
<glyph unicode="&#x2c6;" d="M168 1319l399 227l402 -227l-54 -31l-348 195l-348 -195z" />
<glyph unicode="&#x2dc;" d="M197 1405q41 34 88 53t112 19q34 0 73.5 -10.5t100.5 -39.5q62 -33 98 -44t85 -11q36 0 68 11t75 36l41 -43q-94 -67 -182 -67q-100 0 -187 53q-67 36 -98.5 46.5t-73.5 10.5q-93 0 -159 -55z" />
<glyph unicode="&#x2000;" horiz-adv-x="984" />
<glyph unicode="&#x2001;" horiz-adv-x="1968" />
<glyph unicode="&#x2002;" horiz-adv-x="984" />
<glyph unicode="&#x2003;" horiz-adv-x="1968" />
<glyph unicode="&#x2004;" horiz-adv-x="656" />
<glyph unicode="&#x2005;" horiz-adv-x="492" />
<glyph unicode="&#x2006;" horiz-adv-x="328" />
<glyph unicode="&#x2007;" horiz-adv-x="328" />
<glyph unicode="&#x2008;" horiz-adv-x="246" />
<glyph unicode="&#x2009;" horiz-adv-x="393" />
<glyph unicode="&#x200a;" horiz-adv-x="109" />
<glyph unicode="&#x2010;" horiz-adv-x="545" d="M0 543v59h545v-59h-545z" />
<glyph unicode="&#x2011;" horiz-adv-x="545" d="M0 543v59h545v-59h-545z" />
<glyph unicode="&#x2012;" horiz-adv-x="545" d="M0 543v59h545v-59h-545z" />
<glyph unicode="&#x2013;" horiz-adv-x="1024" d="M72 543v59h880v-59h-880z" />
<glyph unicode="&#x2014;" horiz-adv-x="2048" d="M72 543v59h1904v-59h-1904z" />
<glyph unicode="&#x2018;" horiz-adv-x="567" d="M184 1530h68l131 -318h-68z" />
<glyph unicode="&#x2019;" horiz-adv-x="567" d="M184 1212l131 318h68l-131 -318h-68z" />
<glyph unicode="&#x201a;" horiz-adv-x="567" d="M184 -150l131 320h68l-131 -320h-68z" />
<glyph unicode="&#x201c;" horiz-adv-x="758" d="M188 1530h68l131 -318h-68zM371 1530h67l131 -318h-67z" />
<glyph unicode="&#x201d;" horiz-adv-x="758" d="M188 1212l131 318h68l-131 -318h-68zM371 1212l131 318h67l-131 -318h-67z" />
<glyph unicode="&#x201e;" horiz-adv-x="758" d="M188 -150l131 320h68l-131 -320h-68zM371 -150l131 320h67l-131 -320h-67z" />
<glyph unicode="&#x2022;" horiz-adv-x="768" d="M72 780q0 84 41 158t114.5 118t159.5 44q83 0 154.5 -43t113 -117t41.5 -160q0 -133 -91.5 -227t-219.5 -94q-86 0 -157.5 44t-113.5 117t-42 160z" />
<glyph unicode="&#x2026;" horiz-adv-x="2048" d="M311 0v170h62v-170h-62zM993 0v170h62v-170h-62zM1675 0v170h62v-170h-62z" />
<glyph unicode="&#x202f;" horiz-adv-x="393" />
<glyph unicode="&#x2039;" horiz-adv-x="508" d="M109 569l227 402l41 -56l-197 -346l197 -342l-41 -53z" />
<glyph unicode="&#x203a;" horiz-adv-x="508" d="M131 227l197 342l-197 346l41 56l227 -402l-227 -395z" />
<glyph unicode="&#x205f;" horiz-adv-x="492" />
<glyph unicode="&#x2122;" horiz-adv-x="2028" d="M18 1481l2 49h564v-49h-256v-869h-56v869h-254zM713 612v918h75l426 -832l428 832h74v-918h-55v838h-4l-426 -838h-33l-426 836h-4v-836h-55z" />
<glyph unicode="&#xe000;" horiz-adv-x="1095" d="M0 0v1095h1095v-1095h-1095z" />
</font>
</defs>
</svg>
